<svg width="1080" height="1080" viewBox="0 0 1080 1080" fill="none" xmlns="http://www.w3.org/2000/svg">
<mask id="mask0_925_4" style="mask-type:luminance" maskUnits="userSpaceOnUse" x="239" y="611" width="287" height="33">
<path d="M239.175 611.877H525.526V643.727H239.175V611.877Z" fill="white"/>
</mask>
<g mask="url(#mask0_925_4)">
<path d="M239.175 611.877H525.514V643.727H239.175V611.877Z" fill="black"/>
</g>
<mask id="mask1_925_4" style="mask-type:luminance" maskUnits="userSpaceOnUse" x="562" y="430" width="288" height="33">
<path d="M562.795 430.902H849.158V462.741H562.795V430.902Z" fill="white"/>
</mask>
<g mask="url(#mask1_925_4)">
<path d="M562.795 430.902H849.146V462.741H562.795V430.902Z" fill="black"/>
</g>
<path d="M292.449 555.013V453.14H251.411V425.589H362.917V453.14H321.879V555.013H292.449Z" fill="black"/>
<path d="M422.262 555.013V425.589H507.324V450.347H451.499V477.175H502.363V501.74H451.499V530.062H509.395V555.013H422.262Z" fill="black"/>
<path d="M619.498 642.882V513.458H674.793C684.643 513.458 693.205 515.24 700.466 518.805C707.751 522.369 713.374 527.499 717.324 534.17C721.274 540.817 723.249 548.764 723.249 558.012C723.249 567.525 721.081 575.689 716.746 582.529C712.435 589.369 706.414 594.51 698.684 597.942L725.464 642.882H691.459L668.339 602.566H648.927V642.882H619.498ZM648.542 577.809H670.94C678.189 577.809 683.764 576.123 687.653 572.751C691.531 569.355 693.482 564.503 693.482 558.205C693.482 551.919 691.531 547.078 687.653 543.707C683.764 540.311 678.189 538.601 670.94 538.601H648.542V577.809Z" fill="black"/>
<path d="M787.959 642.882V513.458H817.389V642.882H787.959Z" fill="black"/>
</svg>
